<svg version="1.1" id="Layer_1" xmlns="http://www.w3.org/2000/svg" xmlns:xlink="http://www.w3.org/1999/xlink" x="0px" y="0px"
	 width="100%" viewBox="0 0 1008 1024" enable-background="new 0 0 1008 1024" xml:space="preserve">
<path fill="#000000" opacity="1.000000" stroke="none" 
	d="
M623.960205,784.051514 
	C591.994202,798.984619 558.917725,809.094543 524.223328,812.814636 
	C414.527588,824.576782 325.623505,787.476196 259.986786,698.020874 
	C233.996643,662.599304 218.368820,622.389404 213.103027,578.827454 
	C202.163513,488.329132 228.172195,409.904205 293.003937,345.247253 
	C334.814178,303.549774 385.606110,279.216827 443.777954,270.025665 
	C449.853333,269.065765 455.983032,268.349152 462.115265,267.891754 
	C465.126160,267.667175 466.328369,266.524292 467.140717,263.628754 
	C475.700592,233.118500 496.172638,215.938858 527.125671,211.050018 
	C537.477905,209.414948 547.682861,211.558899 557.765259,214.012177 
	C610.445740,226.830643 657.056824,251.175598 697.355835,287.496124 
	C699.404297,289.342377 701.607910,290.349976 704.326111,290.988464 
	C741.861267,299.804993 765.194153,322.929718 773.718384,360.631714 
	C775.712646,369.452209 776.032593,378.473724 774.614380,387.442963 
	C774.089722,390.761200 774.738708,393.684326 776.035278,396.638000 
	C789.248169,426.737915 797.418945,458.202728 801.026001,490.828796 
	C802.140137,500.906616 802.623657,511.077423 802.898071,521.219116 
	C803.278809,535.284973 795.206604,543.337891 781.226379,543.339783 
	C700.063538,543.350830 618.900574,543.292786 537.737854,543.404480 
	C527.076233,543.419189 516.849487,541.964966 507.076782,537.634094 
	C506.203156,537.246948 505.211884,537.125427 504.318024,536.891663 
	C502.725189,538.641541 503.352356,540.564575 503.351746,542.297913 
	C503.324707,618.127686 503.369293,693.957581 503.272491,769.787170 
	C503.266907,774.177368 504.092896,776.099426 509.053711,775.623657 
	C547.146118,771.970337 583.235046,761.563049 617.097290,743.731445 
	C669.724304,716.018311 710.318726,676.022461 738.793274,623.774170 
	C739.580811,622.329041 740.160645,620.770813 740.817993,619.308289 
	C739.603516,617.610229 737.962036,618.200317 736.587463,618.198853 
	C685.089966,618.144348 633.592468,618.143433 582.094910,618.095093 
	C578.837646,618.092041 576.163635,618.159363 576.191467,622.650208 
	C576.308411,641.481567 576.237305,660.314026 576.268494,679.146057 
	C576.270081,680.105286 576.582397,681.064026 576.742676,681.980530 
	C579.165588,682.978027 580.745850,681.386841 582.422546,680.523132 
	C601.820312,670.530762 619.364624,657.951233 634.832336,642.544556 
	C639.659546,637.736389 645.076477,634.486389 652.115662,635.160706 
	C660.378662,635.952209 666.146973,640.363159 668.839294,648.171387 
	C671.541870,656.009399 669.452698,663.037048 663.663757,668.794922 
	C654.912292,677.499390 645.488098,685.458435 635.550049,692.773682 
	C614.068420,708.585999 590.794922,721.000977 565.458008,729.489136 
	C549.649841,734.784973 537.668579,726.301758 537.660828,709.637390 
	C537.643799,673.139099 537.644287,636.640808 537.660400,600.142517 
	C537.665833,587.926636 544.356140,580.541260 556.541016,579.233337 
	C557.863037,579.091431 559.202209,579.060974 560.533447,579.060913 
	C629.863525,579.058533 699.193604,579.046204 768.523682,579.087769 
	C780.989136,579.095215 789.280090,585.701904 790.634583,596.391174 
	C791.109009,600.135010 790.340942,603.682373 788.988708,607.134888 
	C775.436035,641.738525 756.625427,673.200623 732.343689,701.334412 
	C702.098938,736.377197 666.010620,763.823547 623.960205,784.051514 
M447.185242,774.284668 
	C451.628815,774.827454 456.065033,775.443298 460.518311,775.889160 
	C463.888763,776.226624 466.070404,775.070557 465.688599,771.153381 
	C465.576050,769.998352 465.686371,768.822083 465.686188,767.655579 
	C465.665649,617.004639 465.644806,466.353668 465.617676,315.702698 
	C465.617340,313.870819 465.442200,312.035278 465.513550,310.207886 
	C465.649628,306.723083 463.753632,306.005829 460.751740,306.342621 
	C442.504272,308.389832 424.553162,311.896942 407.277863,318.178558 
	C338.871429,343.052429 290.956451,389.325165 264.229065,456.991333 
	C251.154205,490.093201 246.280411,524.647949 249.344894,560.260437 
	C250.688919,575.879150 253.038071,591.268311 257.360626,606.345947 
	C269.955475,650.278687 293.491943,687.425598 327.550323,717.712097 
	C361.609589,747.999329 401.226288,767.022461 447.185242,774.284668 
M629.499939,505.657654 
	C670.484497,505.649384 711.469055,505.650543 752.453613,505.611084 
	C755.106445,505.608521 757.768433,505.379395 760.408813,505.094849 
	C762.484253,504.871246 763.774109,503.725128 763.646240,501.445557 
	C763.488770,498.639435 763.575134,495.790436 763.107788,493.036041 
	C761.389221,482.907928 759.716492,472.762054 757.577637,462.718414 
	C755.870789,454.703522 754.158386,446.620300 750.441528,438.579224 
	C748.236938,440.306854 746.511353,441.568604 744.885010,442.947449 
	C724.257141,460.435699 700.493103,467.511139 673.824890,463.251923 
	C618.270935,454.379364 585.203491,396.260101 607.333740,343.013123 
	C614.669434,325.363129 626.981506,311.904785 643.156433,301.887909 
	C648.614258,298.508057 648.671631,297.406158 643.464478,293.491119 
	C642.399536,292.690430 641.321655,291.903381 640.213684,291.164062 
	C609.946350,270.966980 577.120728,256.793884 541.406860,249.596695 
	C522.114868,245.708893 503.378113,259.964264 503.348999,278.566711 
	C503.246307,344.207764 503.238800,409.849121 503.340576,475.490143 
	C503.356964,486.066864 508.417572,494.253418 517.086792,500.205750 
	C523.555054,504.646851 530.967712,505.643463 538.534302,505.657806 
	C568.522705,505.714569 598.511353,505.666656 629.499939,505.657654 
M691.740540,425.950348 
	C721.028564,423.290222 741.557068,396.332397 735.687683,367.744598 
	C731.635681,348.009094 719.560059,334.858734 700.189453,329.736908 
	C681.502686,324.795929 664.588684,329.546051 651.524902,344.035034 
	C637.678406,359.392090 634.631470,377.266937 642.613525,396.503632 
	C650.551025,415.633148 671.949768,428.527588 691.740540,425.950348 
z"/>
<path fill="#000000" opacity="1.000000" stroke="none" 
	d="
M656.868286,500.270996 
	C661.005737,500.095795 664.641541,500.863922 668.273254,501.996307 
	C664.391052,503.415253 660.362915,503.215637 656.447266,502.731384 
	C654.367126,502.474152 654.797363,501.125427 656.868286,500.270996 
z"/>
<path fill="#000000" opacity="1.000000" stroke="none" 
	d="
M670.942505,376.975311 
	C671.853271,364.085602 683.010803,358.965759 691.519836,361.101593 
	C699.125793,363.010742 704.528992,370.073090 704.133179,377.591339 
	C703.723999,385.363800 697.674561,392.284546 690.457703,393.236450 
	C681.581360,394.407257 674.347412,389.978516 671.849060,381.777588 
	C671.415466,380.354309 671.237732,378.853058 670.942505,376.975311 
z"/>
</svg>